<svg width="346" height="64" viewBox="0 0 346 64" fill="none" xmlns="http://www.w3.org/2000/svg">
<path d="M55.2756 35.1179C51.1811 34.2675 47.6536 31.7478 45.5748 28.1258C43.4961 24.5352 43.0551 20.1887 44.3465 16.2517C44.4095 16.0312 44.441 15.7793 44.504 15.5588C44.5985 15.1808 44.7244 14.8029 44.7874 14.4249C44.9134 13.7635 44.9764 13.1021 44.9764 12.4092C44.9764 5.57454 39.4331 0.03125 32.5985 0.03125C25.7638 0.03125 20.2205 5.57454 20.2205 12.4092C20.2205 13.0706 20.2835 13.732 20.4094 14.4249C20.4724 14.8029 20.5985 15.1808 20.6929 15.5588C20.7559 15.7793 20.7874 16.0312 20.8504 16.2517C22.1417 20.2202 21.7008 24.5352 19.5906 28.1258C17.4803 31.7163 13.9843 34.2675 9.88977 35.1179C4.15748 36.2832 0 41.3856 0 47.2439C0 54.0786 5.54333 59.6218 12.378 59.6218C19.2126 59.6218 24.7559 54.0786 24.7559 47.2439C24.7559 45.9526 24.5355 44.6612 24.126 43.4014C22.8347 39.4329 23.2756 35.1179 25.3544 31.5273C25.5748 31.1809 25.8583 30.8659 26.0788 30.5194C27.4331 28.3462 29.7953 26.9289 32.5355 26.9289C34.9292 26.9289 37.0709 28.0628 38.4567 29.795L37.8268 28.9446C38.0787 29.1966 38.2677 29.5116 38.4882 29.795C38.6772 30.047 38.8662 30.2675 39.0236 30.5194C39.2441 30.8344 39.5276 31.1494 39.7166 31.4959C41.7953 35.0864 42.2677 39.4328 40.9764 43.3699C40.5669 44.6297 40.3465 45.921 40.3465 47.2124C40.3465 54.047 45.8898 59.5904 52.7245 59.5904C59.5591 59.5904 65.1024 54.047 65.1024 47.2124C65.1024 41.3541 60.9449 36.2518 55.2126 35.0864L55.2756 35.1179Z" fill="black"/>
<path d="M96.3465 35.1181C92.2521 34.2677 88.7245 31.748 86.6458 28.126C84.567 24.5039 84.1261 20.189 85.4174 16.2205C85.8269 14.9606 86.0474 13.6693 86.0474 12.3779C86.0474 5.54329 80.504 0 73.6694 0C66.8347 0 61.2914 5.54329 61.2914 12.3779C61.2914 18.2362 65.4489 23.3386 71.1812 24.504C75.2442 25.3543 78.7718 27.874 80.882 31.4961C82.9608 35.0866 83.4332 39.4331 82.1104 43.3701C81.7009 44.6299 81.4804 45.9213 81.4804 47.2126C81.4804 54.0473 87.0237 59.5906 93.8584 59.5906C100.693 59.5906 106.236 54.0473 106.236 47.2126C106.236 41.3543 102.079 36.252 96.3465 35.0866V35.1181Z" fill="black"/>
<path d="M177.525 6.77154H168.454L152.422 33.7637L136.17 6.77154H127.036V51.7794H137.493V27.0235L149.588 46.8976L149.714 47.118H154.816L167.099 26.4881L167.162 51.307V51.7794H177.651L177.525 7.21248V6.77154Z" fill="black"/>
<path d="M205.902 16.4723C194.847 16.4723 186.816 23.9999 186.816 34.3621C186.816 44.7243 194.847 52.2519 205.902 52.2519C216.958 52.2519 224.926 44.7243 224.926 34.3621C224.926 23.9999 216.926 16.4723 205.902 16.4723ZM205.902 43.307C200.958 43.307 197.651 39.7164 197.651 34.3621C197.651 29.0077 200.958 25.4172 205.902 25.4172C210.847 25.4172 214.091 29.0077 214.091 34.3621C214.091 39.7164 210.816 43.307 205.902 43.307Z" fill="black"/>
<path d="M243.698 20.6613V16.9763H233.43V51.7794H244.139V35.3385C244.139 29.5432 247.194 26.3306 252.706 26.3306C253.304 26.3306 253.808 26.3621 254.406 26.4251L255.351 26.4881V16.5038H254.91C250.06 16.5038 246.218 17.9526 243.698 20.6928V20.6613Z" fill="black"/>
<path d="M283.887 16.4723C279.572 16.4723 276.17 17.7321 273.682 20.1888V16.9763H263.414V63.9999H274.123V48.8188C276.611 51.118 279.887 52.2834 283.887 52.2834C294.092 52.2834 301.21 44.9133 301.21 34.3936C301.21 23.8739 294.092 16.5038 283.887 16.5038V16.4723ZM282.186 25.4172C287.068 25.4172 290.375 29.0077 290.375 34.3621C290.375 39.7164 287.099 43.307 282.186 43.307C277.273 43.307 273.997 39.7164 273.997 34.3621C273.997 29.0077 277.273 25.4172 282.186 25.4172Z" fill="black"/>
<path d="M330.753 16.4723C326.627 16.4723 323.068 17.6691 320.422 19.9368V4.12583H309.714V51.7794H320.422V34.5825C320.422 29.0707 323.225 25.8896 328.107 25.8896C332.359 25.8896 334.533 28.4408 334.533 33.4487V51.7794H345.241V31.9369C345.241 22.2676 339.824 16.5038 330.753 16.5038V16.4723Z" fill="black"/>
</svg>
